Coordinates
version=1
nRows=21
nColumns=12
inDegrees=yes

Units are S.I. units (second, meters, Newtons, ...)
Angles are in degrees

endheader
time	SC_y	SC_z	SC_x	AC_y	AC_z	AC_x	GH_y	GH_z	GH_yy	EL_x	PS_y
       0.0              -17.99           21.7          14.34           69.2         -4.561         -5.427         -137.1          81.83         -75.51           59.4          158.0
   0.01405              -17.99          21.69          14.35           69.2          -4.56         -5.424         -137.1          81.82         -75.48          59.41          158.0
   0.02809              -17.98          21.69          14.35          69.19         -4.558         -5.421         -137.1          81.81         -75.45          59.41          158.0
   0.04214              -17.98          21.69          14.35          69.19         -4.556         -5.418         -137.0          81.79         -75.42          59.42          158.0
   0.05618              -17.98          21.69          14.36          69.18         -4.554         -5.414         -137.0          81.77         -75.39          59.42          158.0
   0.07023              -17.98          21.69          14.36          69.18         -4.552          -5.41         -137.0          81.76         -75.36          59.43          158.0
   0.08427              -17.98          21.69          14.36          69.17         -4.549         -5.406         -137.0          81.74         -75.32          59.43          158.0
   0.09832              -17.98          21.68          14.37          69.17         -4.547         -5.402         -137.0          81.72         -75.28          59.44          158.0
    0.1124              -17.98          21.68          14.37          69.16         -4.544         -5.398         -137.0           81.7         -75.24          59.45          158.0
    0.1264              -17.98          21.68          14.38          69.15         -4.541         -5.393         -137.0          81.68         -75.19          59.45          158.0
    0.1405              -17.97          21.68          14.38          69.15         -4.538         -5.388         -136.9          81.65         -75.15          59.46          158.0
    0.1545              -17.97          21.67          14.39          69.14         -4.535         -5.382         -136.9          81.63         -75.09          59.47          158.0
    0.1685              -17.97          21.67          14.39          69.13         -4.531         -5.376         -136.9           81.6         -75.04          59.48          158.0
    0.1826              -17.97          21.67           14.4          69.12         -4.528          -5.37         -136.9          81.57         -74.98          59.49          158.0
    0.1966              -17.96          21.66          14.41          69.11         -4.523         -5.363         -136.8          81.54         -74.91           59.5          158.0
    0.2107              -17.96          21.66          14.42           69.1         -4.519         -5.355         -136.8           81.5         -74.84          59.51          158.0
    0.2247              -17.96          21.66          14.43          69.09         -4.514         -5.347         -136.8          81.46         -74.77          59.52          157.9
    0.2388              -17.96          21.65          14.44          69.08         -4.509         -5.338         -136.7          81.42         -74.68          59.53          157.9
    0.2528              -17.95          21.65          14.45          69.06         -4.503         -5.328         -136.7          81.38         -74.59          59.55          157.9
    0.2669              -17.95          21.64          14.46          69.05         -4.496         -5.317         -136.7          81.33         -74.49          59.56          157.9
    0.2809              -17.94          21.63          14.47          69.03         -4.489         -5.305         -136.6          81.27         -74.38          59.58          157.9
